<mxfile host="Electron" modified="2023-05-27T23:44:00.900Z" agent="Mozilla/5.0 (Macintosh; Intel Mac OS X 10_15_7) AppleWebKit/537.36 (KHTML, like Gecko) draw.io/21.2.1 Chrome/112.0.5615.87 Electron/24.1.2 Safari/537.36" etag="BmquIIq_HRxTa3GDljDq" version="21.2.1" type="device">
  <diagram name="Page-1" id="H1nZVYqxkzLZFgEqRADx">
    <mxGraphModel dx="1083" dy="3478" grid="1" gridSize="10" guides="1" tooltips="1" connect="1" arrows="1" fold="1" page="1" pageScale="1" pageWidth="850" pageHeight="1100" math="0" shadow="0">
      <root>
        <mxCell id="0" />
        <mxCell id="1" parent="0" />
        <mxCell id="AsBp8XiL8Dx4Y6rQVwFH-6815" value="R, W: 147, H: 142, ORDER: 17, GC: {59, 40, 48, 19, 13, 8, 12, 6, 7, 14, 30, 83, 1, 18, 2, 16, 64} " style="text;html=1;strokeColor=none;fillColor=none;align=center;verticalAlign=middle;whiteSpace=wrap;rounded=0;fontSize=32;" parent="1" vertex="1">
          <mxGeometry x="1570" width="1470" height="30" as="geometry" />
        </mxCell>
        <mxCell id="AsBp8XiL8Dx4Y6rQVwFH-9871" value="R, W: 147, H: 132, ORDER: 18, GC: {63, 26, 21, 37, 5, 16, 31, 20, 33, 6, 32, 13, 19, 27, 69, 43, 8, 35} " style="text;html=1;strokeColor=none;fillColor=none;align=center;verticalAlign=middle;whiteSpace=wrap;rounded=0;fontSize=32;" parent="1" vertex="1">
          <mxGeometry x="1510" y="1580" width="1470" height="30" as="geometry" />
        </mxCell>
        <mxCell id="2DC2WM5DY_a96OD5L-HZ-496" value="R, W: 147, H: 122, ORDER: 21, GC: {56, 46, 45, 16, 29, 10, 24, 12, 9, 3, 6, 13, 8, 7, 1, 48, 66, 19, 5, 14, 33} " style="text;html=1;strokeColor=none;fillColor=none;align=center;verticalAlign=middle;whiteSpace=wrap;rounded=0;fontSize=32;" vertex="1" parent="1">
          <mxGeometry x="1550" y="3160" width="1470" height="30" as="geometry" />
        </mxCell>
        <mxCell id="2DC2WM5DY_a96OD5L-HZ-518" value="R, W: 147, H: 139, ORDER: 21, GC: {60, 43, 25, 19, 8, 11, 18, 7, 5, 3, 14, 12, 17, 15, 28, 1, 2, 13, 27, 79, 68} " style="text;html=1;strokeColor=none;fillColor=none;align=center;verticalAlign=middle;whiteSpace=wrap;rounded=0;fontSize=32;" vertex="1" parent="1">
          <mxGeometry x="1550" y="4620" width="1470" height="30" as="geometry" />
        </mxCell>
        <mxCell id="2DC2WM5DY_a96OD5L-HZ-540" value="R, W: 147, H: 102, ORDER: 21, GC: {43, 22, 32, 12, 10, 50, 2, 8, 9, 5, 4, 1, 14, 3, 6, 18, 59, 20, 16, 52, 36} " style="text;html=1;strokeColor=none;fillColor=none;align=center;verticalAlign=middle;whiteSpace=wrap;rounded=0;fontSize=32;" vertex="1" parent="1">
          <mxGeometry x="1590" y="6220" width="1470" height="30" as="geometry" />
        </mxCell>
        <mxCell id="2DC2WM5DY_a96OD5L-HZ-562" value="R, W: 147, H: 136, ORDER: 21, GC: {57, 35, 31, 24, 7, 17, 12, 16, 10, 27, 22, 13, 5, 3, 4, 2, 1, 21, 20, 79, 68} " style="text;html=1;strokeColor=none;fillColor=none;align=center;verticalAlign=middle;whiteSpace=wrap;rounded=0;fontSize=32;" vertex="1" parent="1">
          <mxGeometry x="1610" y="7520" width="1470" height="30" as="geometry" />
        </mxCell>
        <mxCell id="2DC2WM5DY_a96OD5L-HZ-584" value="S, W: 147, H: 147, ORDER: 22, GC: {32, 19, 15, 26, 4, 11, 23, 22, 10, 55, 37, 12, 21, 34, 8, 47, 25, 41, 2, 45, 59, 43} " style="text;html=1;strokeColor=none;fillColor=none;align=center;verticalAlign=middle;whiteSpace=wrap;rounded=0;fontSize=32;" vertex="1" parent="1">
          <mxGeometry x="1630" y="9120" width="1470" height="30" as="geometry" />
        </mxCell>
        <mxCell id="2DC2WM5DY_a96OD5L-HZ-607" value="S, W: 147, H: 147, ORDER: 22, GC: {43, 32, 25, 47, 8, 17, 31, 1, 9, 21, 5, 23, 20, 52, 3, 29, 26, 40, 4, 48, 55, 44} " style="text;html=1;strokeColor=none;fillColor=none;align=center;verticalAlign=middle;whiteSpace=wrap;rounded=0;fontSize=32;" vertex="1" parent="1">
          <mxGeometry x="1640" y="10730" width="1470" height="30" as="geometry" />
        </mxCell>
        <mxCell id="2DC2WM5DY_a96OD5L-HZ-630" value="S, W: 147, H: 147, ORDER: 25, GC: {19, 20, 14, 5, 23, 4, 13, 3, 9, 27, 10, 16, 40, 6, 25, 33, 17, 8, 12, 15, 34, 41, 32, 74, 73} " style="text;html=1;strokeColor=none;fillColor=none;align=center;verticalAlign=middle;whiteSpace=wrap;rounded=0;fontSize=32;" vertex="1" parent="1">
          <mxGeometry x="1640" y="12330" width="1470" height="30" as="geometry" />
        </mxCell>
        <mxCell id="2DC2WM5DY_a96OD5L-HZ-656" value="" style="group;flipV=1;" vertex="1" connectable="0" parent="1">
          <mxGeometry x="1510" y="1630" width="1470" height="1320" as="geometry" />
        </mxCell>
        <mxCell id="761dnnyQ54j-Cl0NHfQN-9872" value="63" style="rounded=0;whiteSpace=wrap;html=1;fontSize=32;" parent="2DC2WM5DY_a96OD5L-HZ-656" vertex="1">
          <mxGeometry y="690" width="630" height="630" as="geometry" />
        </mxCell>
        <mxCell id="761dnnyQ54j-Cl0NHfQN-9873" value="26" style="rounded=0;whiteSpace=wrap;html=1;fontSize=32;" parent="2DC2WM5DY_a96OD5L-HZ-656" vertex="1">
          <mxGeometry x="630" y="1060" width="260" height="260" as="geometry" />
        </mxCell>
        <mxCell id="761dnnyQ54j-Cl0NHfQN-9874" value="21" style="rounded=0;whiteSpace=wrap;html=1;fontSize=32;" parent="2DC2WM5DY_a96OD5L-HZ-656" vertex="1">
          <mxGeometry x="890" y="1110" width="210" height="210" as="geometry" />
        </mxCell>
        <mxCell id="761dnnyQ54j-Cl0NHfQN-9875" value="37" style="rounded=0;whiteSpace=wrap;html=1;fontSize=32;" parent="2DC2WM5DY_a96OD5L-HZ-656" vertex="1">
          <mxGeometry x="1100" y="950" width="370" height="370" as="geometry" />
        </mxCell>
        <mxCell id="761dnnyQ54j-Cl0NHfQN-9876" value="5" style="rounded=0;whiteSpace=wrap;html=1;fontSize=32;" parent="2DC2WM5DY_a96OD5L-HZ-656" vertex="1">
          <mxGeometry x="890" y="1060" width="50" height="50" as="geometry" />
        </mxCell>
        <mxCell id="761dnnyQ54j-Cl0NHfQN-9877" value="16" style="rounded=0;whiteSpace=wrap;html=1;fontSize=32;" parent="2DC2WM5DY_a96OD5L-HZ-656" vertex="1">
          <mxGeometry x="940" y="950" width="160" height="160" as="geometry" />
        </mxCell>
        <mxCell id="761dnnyQ54j-Cl0NHfQN-9878" value="31" style="rounded=0;whiteSpace=wrap;html=1;fontSize=32;" parent="2DC2WM5DY_a96OD5L-HZ-656" vertex="1">
          <mxGeometry x="630" y="750" width="310" height="310" as="geometry" />
        </mxCell>
        <mxCell id="761dnnyQ54j-Cl0NHfQN-9879" value="20" style="rounded=0;whiteSpace=wrap;html=1;fontSize=32;" parent="2DC2WM5DY_a96OD5L-HZ-656" vertex="1">
          <mxGeometry x="940" y="750" width="200" height="200" as="geometry" />
        </mxCell>
        <mxCell id="761dnnyQ54j-Cl0NHfQN-9880" value="33" style="rounded=0;whiteSpace=wrap;html=1;fontSize=32;" parent="2DC2WM5DY_a96OD5L-HZ-656" vertex="1">
          <mxGeometry x="1140" y="620" width="330" height="330" as="geometry" />
        </mxCell>
        <mxCell id="761dnnyQ54j-Cl0NHfQN-9881" value="6" style="rounded=0;whiteSpace=wrap;html=1;fontSize=32;" parent="2DC2WM5DY_a96OD5L-HZ-656" vertex="1">
          <mxGeometry x="630" y="690" width="60" height="60" as="geometry" />
        </mxCell>
        <mxCell id="761dnnyQ54j-Cl0NHfQN-9882" value="32" style="rounded=0;whiteSpace=wrap;html=1;fontSize=32;" parent="2DC2WM5DY_a96OD5L-HZ-656" vertex="1">
          <mxGeometry x="690" y="430" width="320" height="320" as="geometry" />
        </mxCell>
        <mxCell id="761dnnyQ54j-Cl0NHfQN-9883" value="13" style="rounded=0;whiteSpace=wrap;html=1;fontSize=32;" parent="2DC2WM5DY_a96OD5L-HZ-656" vertex="1">
          <mxGeometry x="1010" y="620" width="130" height="130" as="geometry" />
        </mxCell>
        <mxCell id="761dnnyQ54j-Cl0NHfQN-9884" value="19" style="rounded=0;whiteSpace=wrap;html=1;fontSize=32;" parent="2DC2WM5DY_a96OD5L-HZ-656" vertex="1">
          <mxGeometry x="1010" y="430" width="190" height="190" as="geometry" />
        </mxCell>
        <mxCell id="761dnnyQ54j-Cl0NHfQN-9885" value="27" style="rounded=0;whiteSpace=wrap;html=1;fontSize=32;" parent="2DC2WM5DY_a96OD5L-HZ-656" vertex="1">
          <mxGeometry x="1200" y="350" width="270" height="270" as="geometry" />
        </mxCell>
        <mxCell id="761dnnyQ54j-Cl0NHfQN-9886" value="69" style="rounded=0;whiteSpace=wrap;html=1;fontSize=32;" parent="2DC2WM5DY_a96OD5L-HZ-656" vertex="1">
          <mxGeometry width="690" height="690" as="geometry" />
        </mxCell>
        <mxCell id="761dnnyQ54j-Cl0NHfQN-9887" value="43" style="rounded=0;whiteSpace=wrap;html=1;fontSize=32;" parent="2DC2WM5DY_a96OD5L-HZ-656" vertex="1">
          <mxGeometry x="690" width="430" height="430" as="geometry" />
        </mxCell>
        <mxCell id="761dnnyQ54j-Cl0NHfQN-9888" value="8" style="rounded=0;whiteSpace=wrap;html=1;fontSize=32;" parent="2DC2WM5DY_a96OD5L-HZ-656" vertex="1">
          <mxGeometry x="1120" y="350" width="80" height="80" as="geometry" />
        </mxCell>
        <mxCell id="761dnnyQ54j-Cl0NHfQN-9889" value="35" style="rounded=0;whiteSpace=wrap;html=1;fontSize=32;" parent="2DC2WM5DY_a96OD5L-HZ-656" vertex="1">
          <mxGeometry x="1120" width="350" height="350" as="geometry" />
        </mxCell>
        <mxCell id="2DC2WM5DY_a96OD5L-HZ-657" value="" style="group;flipV=1;" vertex="1" connectable="0" parent="1">
          <mxGeometry x="1570" y="50" width="1470" height="1420" as="geometry" />
        </mxCell>
        <mxCell id="761dnnyQ54j-Cl0NHfQN-6816" value="59" style="rounded=0;whiteSpace=wrap;html=1;fontSize=32;" parent="2DC2WM5DY_a96OD5L-HZ-657" vertex="1">
          <mxGeometry y="830" width="590" height="590" as="geometry" />
        </mxCell>
        <mxCell id="761dnnyQ54j-Cl0NHfQN-6817" value="40" style="rounded=0;whiteSpace=wrap;html=1;fontSize=32;" parent="2DC2WM5DY_a96OD5L-HZ-657" vertex="1">
          <mxGeometry x="590" y="1020" width="400" height="400" as="geometry" />
        </mxCell>
        <mxCell id="761dnnyQ54j-Cl0NHfQN-6818" value="48" style="rounded=0;whiteSpace=wrap;html=1;fontSize=32;" parent="2DC2WM5DY_a96OD5L-HZ-657" vertex="1">
          <mxGeometry x="990" y="940" width="480" height="480" as="geometry" />
        </mxCell>
        <mxCell id="761dnnyQ54j-Cl0NHfQN-6819" value="19" style="rounded=0;whiteSpace=wrap;html=1;fontSize=32;" parent="2DC2WM5DY_a96OD5L-HZ-657" vertex="1">
          <mxGeometry x="590" y="830" width="190" height="190" as="geometry" />
        </mxCell>
        <mxCell id="761dnnyQ54j-Cl0NHfQN-6820" value="13" style="rounded=0;whiteSpace=wrap;html=1;fontSize=32;" parent="2DC2WM5DY_a96OD5L-HZ-657" vertex="1">
          <mxGeometry x="780" y="890" width="130" height="130" as="geometry" />
        </mxCell>
        <mxCell id="761dnnyQ54j-Cl0NHfQN-6821" value="8" style="rounded=0;whiteSpace=wrap;html=1;fontSize=32;" parent="2DC2WM5DY_a96OD5L-HZ-657" vertex="1">
          <mxGeometry x="910" y="940" width="80" height="80" as="geometry" />
        </mxCell>
        <mxCell id="761dnnyQ54j-Cl0NHfQN-6822" value="12" style="rounded=0;whiteSpace=wrap;html=1;fontSize=32;" parent="2DC2WM5DY_a96OD5L-HZ-657" vertex="1">
          <mxGeometry x="910" y="820" width="120" height="120" as="geometry" />
        </mxCell>
        <mxCell id="761dnnyQ54j-Cl0NHfQN-6823" value="6" style="rounded=0;whiteSpace=wrap;html=1;fontSize=32;" parent="2DC2WM5DY_a96OD5L-HZ-657" vertex="1">
          <mxGeometry x="780" y="830" width="60" height="60" as="geometry" />
        </mxCell>
        <mxCell id="761dnnyQ54j-Cl0NHfQN-6824" value="7" style="rounded=0;whiteSpace=wrap;html=1;fontSize=32;" parent="2DC2WM5DY_a96OD5L-HZ-657" vertex="1">
          <mxGeometry x="840" y="820" width="70" height="70" as="geometry" />
        </mxCell>
        <mxCell id="761dnnyQ54j-Cl0NHfQN-6825" value="14" style="rounded=0;whiteSpace=wrap;html=1;fontSize=32;" parent="2DC2WM5DY_a96OD5L-HZ-657" vertex="1">
          <mxGeometry x="1030" y="800" width="140" height="140" as="geometry" />
        </mxCell>
        <mxCell id="761dnnyQ54j-Cl0NHfQN-6826" value="30" style="rounded=0;whiteSpace=wrap;html=1;fontSize=32;" parent="2DC2WM5DY_a96OD5L-HZ-657" vertex="1">
          <mxGeometry x="1170" y="640" width="300" height="300" as="geometry" />
        </mxCell>
        <mxCell id="761dnnyQ54j-Cl0NHfQN-6827" value="83" style="rounded=0;whiteSpace=wrap;html=1;fontSize=32;" parent="2DC2WM5DY_a96OD5L-HZ-657" vertex="1">
          <mxGeometry width="830" height="830" as="geometry" />
        </mxCell>
        <mxCell id="761dnnyQ54j-Cl0NHfQN-6828" value="1" style="rounded=0;whiteSpace=wrap;html=1;fontSize=32;" parent="2DC2WM5DY_a96OD5L-HZ-657" vertex="1">
          <mxGeometry x="830" y="820" width="10" height="10" as="geometry" />
        </mxCell>
        <mxCell id="761dnnyQ54j-Cl0NHfQN-6829" value="18" style="rounded=0;whiteSpace=wrap;html=1;fontSize=32;" parent="2DC2WM5DY_a96OD5L-HZ-657" vertex="1">
          <mxGeometry x="830" y="640" width="180" height="180" as="geometry" />
        </mxCell>
        <mxCell id="761dnnyQ54j-Cl0NHfQN-6830" value="2" style="rounded=0;whiteSpace=wrap;html=1;fontSize=32;" parent="2DC2WM5DY_a96OD5L-HZ-657" vertex="1">
          <mxGeometry x="1010" y="800" width="20" height="20" as="geometry" />
        </mxCell>
        <mxCell id="761dnnyQ54j-Cl0NHfQN-6831" value="16" style="rounded=0;whiteSpace=wrap;html=1;fontSize=32;" parent="2DC2WM5DY_a96OD5L-HZ-657" vertex="1">
          <mxGeometry x="1010" y="640" width="160" height="160" as="geometry" />
        </mxCell>
        <mxCell id="761dnnyQ54j-Cl0NHfQN-6832" value="64" style="rounded=0;whiteSpace=wrap;html=1;fontSize=32;" parent="2DC2WM5DY_a96OD5L-HZ-657" vertex="1">
          <mxGeometry x="830" width="640" height="640" as="geometry" />
        </mxCell>
        <mxCell id="2DC2WM5DY_a96OD5L-HZ-658" value="" style="group;flipV=1;" vertex="1" connectable="0" parent="1">
          <mxGeometry x="1550" y="3210" width="1470" height="1220" as="geometry" />
        </mxCell>
        <mxCell id="2DC2WM5DY_a96OD5L-HZ-497" value="56" style="rounded=0;whiteSpace=wrap;html=1;fontSize=32;" vertex="1" parent="2DC2WM5DY_a96OD5L-HZ-658">
          <mxGeometry y="660" width="560" height="560" as="geometry" />
        </mxCell>
        <mxCell id="2DC2WM5DY_a96OD5L-HZ-498" value="46" style="rounded=0;whiteSpace=wrap;html=1;fontSize=32;" vertex="1" parent="2DC2WM5DY_a96OD5L-HZ-658">
          <mxGeometry x="560" y="760" width="460" height="460" as="geometry" />
        </mxCell>
        <mxCell id="2DC2WM5DY_a96OD5L-HZ-499" value="45" style="rounded=0;whiteSpace=wrap;html=1;fontSize=32;" vertex="1" parent="2DC2WM5DY_a96OD5L-HZ-658">
          <mxGeometry x="1020" y="770" width="450" height="450" as="geometry" />
        </mxCell>
        <mxCell id="2DC2WM5DY_a96OD5L-HZ-500" value="16" style="rounded=0;whiteSpace=wrap;html=1;fontSize=32;" vertex="1" parent="2DC2WM5DY_a96OD5L-HZ-658">
          <mxGeometry x="1020" y="610" width="160" height="160" as="geometry" />
        </mxCell>
        <mxCell id="2DC2WM5DY_a96OD5L-HZ-501" value="29" style="rounded=0;whiteSpace=wrap;html=1;fontSize=32;" vertex="1" parent="2DC2WM5DY_a96OD5L-HZ-658">
          <mxGeometry x="1180" y="480" width="290" height="290" as="geometry" />
        </mxCell>
        <mxCell id="2DC2WM5DY_a96OD5L-HZ-502" value="10" style="rounded=0;whiteSpace=wrap;html=1;fontSize=32;" vertex="1" parent="2DC2WM5DY_a96OD5L-HZ-658">
          <mxGeometry x="560" y="660" width="100" height="100" as="geometry" />
        </mxCell>
        <mxCell id="2DC2WM5DY_a96OD5L-HZ-503" value="24" style="rounded=0;whiteSpace=wrap;html=1;fontSize=32;" vertex="1" parent="2DC2WM5DY_a96OD5L-HZ-658">
          <mxGeometry x="660" y="520" width="240" height="240" as="geometry" />
        </mxCell>
        <mxCell id="2DC2WM5DY_a96OD5L-HZ-504" value="12" style="rounded=0;whiteSpace=wrap;html=1;fontSize=32;" vertex="1" parent="2DC2WM5DY_a96OD5L-HZ-658">
          <mxGeometry x="900" y="640" width="120" height="120" as="geometry" />
        </mxCell>
        <mxCell id="2DC2WM5DY_a96OD5L-HZ-505" value="9" style="rounded=0;whiteSpace=wrap;html=1;fontSize=32;" vertex="1" parent="2DC2WM5DY_a96OD5L-HZ-658">
          <mxGeometry x="900" y="550" width="90" height="90" as="geometry" />
        </mxCell>
        <mxCell id="2DC2WM5DY_a96OD5L-HZ-506" value="3" style="rounded=0;whiteSpace=wrap;html=1;fontSize=32;" vertex="1" parent="2DC2WM5DY_a96OD5L-HZ-658">
          <mxGeometry x="990" y="610" width="30" height="30" as="geometry" />
        </mxCell>
        <mxCell id="2DC2WM5DY_a96OD5L-HZ-507" value="6" style="rounded=0;whiteSpace=wrap;html=1;fontSize=32;" vertex="1" parent="2DC2WM5DY_a96OD5L-HZ-658">
          <mxGeometry x="990" y="550" width="60" height="60" as="geometry" />
        </mxCell>
        <mxCell id="2DC2WM5DY_a96OD5L-HZ-508" value="13" style="rounded=0;whiteSpace=wrap;html=1;fontSize=32;" vertex="1" parent="2DC2WM5DY_a96OD5L-HZ-658">
          <mxGeometry x="1050" y="480" width="130" height="130" as="geometry" />
        </mxCell>
        <mxCell id="2DC2WM5DY_a96OD5L-HZ-509" value="8" style="rounded=0;whiteSpace=wrap;html=1;fontSize=32;" vertex="1" parent="2DC2WM5DY_a96OD5L-HZ-658">
          <mxGeometry x="900" y="470" width="80" height="80" as="geometry" />
        </mxCell>
        <mxCell id="2DC2WM5DY_a96OD5L-HZ-510" value="7" style="rounded=0;whiteSpace=wrap;html=1;fontSize=32;" vertex="1" parent="2DC2WM5DY_a96OD5L-HZ-658">
          <mxGeometry x="980" y="480" width="70" height="70" as="geometry" />
        </mxCell>
        <mxCell id="2DC2WM5DY_a96OD5L-HZ-511" value="1" style="rounded=0;whiteSpace=wrap;html=1;fontSize=32;" vertex="1" parent="2DC2WM5DY_a96OD5L-HZ-658">
          <mxGeometry x="980" y="470" width="10" height="10" as="geometry" />
        </mxCell>
        <mxCell id="2DC2WM5DY_a96OD5L-HZ-512" value="48" style="rounded=0;whiteSpace=wrap;html=1;fontSize=32;" vertex="1" parent="2DC2WM5DY_a96OD5L-HZ-658">
          <mxGeometry x="990" width="480" height="480" as="geometry" />
        </mxCell>
        <mxCell id="2DC2WM5DY_a96OD5L-HZ-513" value="66" style="rounded=0;whiteSpace=wrap;html=1;fontSize=32;" vertex="1" parent="2DC2WM5DY_a96OD5L-HZ-658">
          <mxGeometry width="660" height="660" as="geometry" />
        </mxCell>
        <mxCell id="2DC2WM5DY_a96OD5L-HZ-514" value="19" style="rounded=0;whiteSpace=wrap;html=1;fontSize=32;" vertex="1" parent="2DC2WM5DY_a96OD5L-HZ-658">
          <mxGeometry x="660" y="330" width="190" height="190" as="geometry" />
        </mxCell>
        <mxCell id="2DC2WM5DY_a96OD5L-HZ-515" value="5" style="rounded=0;whiteSpace=wrap;html=1;fontSize=32;" vertex="1" parent="2DC2WM5DY_a96OD5L-HZ-658">
          <mxGeometry x="850" y="470" width="50" height="50" as="geometry" />
        </mxCell>
        <mxCell id="2DC2WM5DY_a96OD5L-HZ-516" value="14" style="rounded=0;whiteSpace=wrap;html=1;fontSize=32;" vertex="1" parent="2DC2WM5DY_a96OD5L-HZ-658">
          <mxGeometry x="850" y="330" width="140" height="140" as="geometry" />
        </mxCell>
        <mxCell id="2DC2WM5DY_a96OD5L-HZ-517" value="33" style="rounded=0;whiteSpace=wrap;html=1;fontSize=32;" vertex="1" parent="2DC2WM5DY_a96OD5L-HZ-658">
          <mxGeometry x="660" width="330" height="330" as="geometry" />
        </mxCell>
        <mxCell id="2DC2WM5DY_a96OD5L-HZ-659" value="" style="group;flipV=1;" vertex="1" connectable="0" parent="1">
          <mxGeometry x="1550" y="4670" width="1470" height="1390" as="geometry" />
        </mxCell>
        <mxCell id="2DC2WM5DY_a96OD5L-HZ-519" value="60" style="rounded=0;whiteSpace=wrap;html=1;fontSize=32;" vertex="1" parent="2DC2WM5DY_a96OD5L-HZ-659">
          <mxGeometry y="790" width="600" height="600" as="geometry" />
        </mxCell>
        <mxCell id="2DC2WM5DY_a96OD5L-HZ-520" value="43" style="rounded=0;whiteSpace=wrap;html=1;fontSize=32;" vertex="1" parent="2DC2WM5DY_a96OD5L-HZ-659">
          <mxGeometry x="600" y="960" width="430" height="430" as="geometry" />
        </mxCell>
        <mxCell id="2DC2WM5DY_a96OD5L-HZ-521" value="25" style="rounded=0;whiteSpace=wrap;html=1;fontSize=32;" vertex="1" parent="2DC2WM5DY_a96OD5L-HZ-659">
          <mxGeometry x="1030" y="1140" width="250" height="250" as="geometry" />
        </mxCell>
        <mxCell id="2DC2WM5DY_a96OD5L-HZ-522" value="19" style="rounded=0;whiteSpace=wrap;html=1;fontSize=32;" vertex="1" parent="2DC2WM5DY_a96OD5L-HZ-659">
          <mxGeometry x="1280" y="1200" width="190" height="190" as="geometry" />
        </mxCell>
        <mxCell id="2DC2WM5DY_a96OD5L-HZ-523" value="8" style="rounded=0;whiteSpace=wrap;html=1;fontSize=32;" vertex="1" parent="2DC2WM5DY_a96OD5L-HZ-659">
          <mxGeometry x="1280" y="1120" width="80" height="80" as="geometry" />
        </mxCell>
        <mxCell id="2DC2WM5DY_a96OD5L-HZ-524" value="11" style="rounded=0;whiteSpace=wrap;html=1;fontSize=32;" vertex="1" parent="2DC2WM5DY_a96OD5L-HZ-659">
          <mxGeometry x="1360" y="1090" width="110" height="110" as="geometry" />
        </mxCell>
        <mxCell id="2DC2WM5DY_a96OD5L-HZ-525" value="18" style="rounded=0;whiteSpace=wrap;html=1;fontSize=32;" vertex="1" parent="2DC2WM5DY_a96OD5L-HZ-659">
          <mxGeometry x="1030" y="960" width="180" height="180" as="geometry" />
        </mxCell>
        <mxCell id="2DC2WM5DY_a96OD5L-HZ-526" value="7" style="rounded=0;whiteSpace=wrap;html=1;fontSize=32;" vertex="1" parent="2DC2WM5DY_a96OD5L-HZ-659">
          <mxGeometry x="1210" y="1070" width="70" height="70" as="geometry" />
        </mxCell>
        <mxCell id="2DC2WM5DY_a96OD5L-HZ-527" value="5" style="rounded=0;whiteSpace=wrap;html=1;fontSize=32;" vertex="1" parent="2DC2WM5DY_a96OD5L-HZ-659">
          <mxGeometry x="1280" y="1070" width="50" height="50" as="geometry" />
        </mxCell>
        <mxCell id="2DC2WM5DY_a96OD5L-HZ-528" value="3" style="rounded=0;whiteSpace=wrap;html=1;fontSize=32;" vertex="1" parent="2DC2WM5DY_a96OD5L-HZ-659">
          <mxGeometry x="1330" y="1090" width="30" height="30" as="geometry" />
        </mxCell>
        <mxCell id="2DC2WM5DY_a96OD5L-HZ-529" value="14" style="rounded=0;whiteSpace=wrap;html=1;fontSize=32;" vertex="1" parent="2DC2WM5DY_a96OD5L-HZ-659">
          <mxGeometry x="1330" y="950" width="140" height="140" as="geometry" />
        </mxCell>
        <mxCell id="2DC2WM5DY_a96OD5L-HZ-530" value="12" style="rounded=0;whiteSpace=wrap;html=1;fontSize=32;" vertex="1" parent="2DC2WM5DY_a96OD5L-HZ-659">
          <mxGeometry x="1210" y="950" width="120" height="120" as="geometry" />
        </mxCell>
        <mxCell id="2DC2WM5DY_a96OD5L-HZ-531" value="17" style="rounded=0;whiteSpace=wrap;html=1;fontSize=32;" vertex="1" parent="2DC2WM5DY_a96OD5L-HZ-659">
          <mxGeometry x="600" y="790" width="170" height="170" as="geometry" />
        </mxCell>
        <mxCell id="2DC2WM5DY_a96OD5L-HZ-532" value="15" style="rounded=0;whiteSpace=wrap;html=1;fontSize=32;" vertex="1" parent="2DC2WM5DY_a96OD5L-HZ-659">
          <mxGeometry x="770" y="810" width="150" height="150" as="geometry" />
        </mxCell>
        <mxCell id="2DC2WM5DY_a96OD5L-HZ-533" value="28" style="rounded=0;whiteSpace=wrap;html=1;fontSize=32;" vertex="1" parent="2DC2WM5DY_a96OD5L-HZ-659">
          <mxGeometry x="920" y="680" width="280" height="280" as="geometry" />
        </mxCell>
        <mxCell id="2DC2WM5DY_a96OD5L-HZ-534" value="1" style="rounded=0;whiteSpace=wrap;html=1;fontSize=32;" vertex="1" parent="2DC2WM5DY_a96OD5L-HZ-659">
          <mxGeometry x="1200" y="950" width="10" height="10" as="geometry" />
        </mxCell>
        <mxCell id="2DC2WM5DY_a96OD5L-HZ-535" value="2" style="rounded=0;whiteSpace=wrap;html=1;fontSize=32;" vertex="1" parent="2DC2WM5DY_a96OD5L-HZ-659">
          <mxGeometry x="770" y="790" width="20" height="20" as="geometry" />
        </mxCell>
        <mxCell id="2DC2WM5DY_a96OD5L-HZ-536" value="13" style="rounded=0;whiteSpace=wrap;html=1;fontSize=32;" vertex="1" parent="2DC2WM5DY_a96OD5L-HZ-659">
          <mxGeometry x="790" y="680" width="130" height="130" as="geometry" />
        </mxCell>
        <mxCell id="2DC2WM5DY_a96OD5L-HZ-537" value="27" style="rounded=0;whiteSpace=wrap;html=1;fontSize=32;" vertex="1" parent="2DC2WM5DY_a96OD5L-HZ-659">
          <mxGeometry x="1200" y="680" width="270" height="270" as="geometry" />
        </mxCell>
        <mxCell id="2DC2WM5DY_a96OD5L-HZ-538" value="79" style="rounded=0;whiteSpace=wrap;html=1;fontSize=32;" vertex="1" parent="2DC2WM5DY_a96OD5L-HZ-659">
          <mxGeometry width="790" height="790" as="geometry" />
        </mxCell>
        <mxCell id="2DC2WM5DY_a96OD5L-HZ-539" value="68" style="rounded=0;whiteSpace=wrap;html=1;fontSize=32;" vertex="1" parent="2DC2WM5DY_a96OD5L-HZ-659">
          <mxGeometry x="790" width="680" height="680" as="geometry" />
        </mxCell>
        <mxCell id="2DC2WM5DY_a96OD5L-HZ-660" value="" style="group;flipV=1;" vertex="1" connectable="0" parent="1">
          <mxGeometry x="1590" y="6270" width="1470" height="1020" as="geometry" />
        </mxCell>
        <mxCell id="2DC2WM5DY_a96OD5L-HZ-541" value="43" style="rounded=0;whiteSpace=wrap;html=1;fontSize=32;" vertex="1" parent="2DC2WM5DY_a96OD5L-HZ-660">
          <mxGeometry y="590" width="430" height="430" as="geometry" />
        </mxCell>
        <mxCell id="2DC2WM5DY_a96OD5L-HZ-542" value="22" style="rounded=0;whiteSpace=wrap;html=1;fontSize=32;" vertex="1" parent="2DC2WM5DY_a96OD5L-HZ-660">
          <mxGeometry x="430" y="800" width="220" height="220" as="geometry" />
        </mxCell>
        <mxCell id="2DC2WM5DY_a96OD5L-HZ-543" value="32" style="rounded=0;whiteSpace=wrap;html=1;fontSize=32;" vertex="1" parent="2DC2WM5DY_a96OD5L-HZ-660">
          <mxGeometry x="650" y="700" width="320" height="320" as="geometry" />
        </mxCell>
        <mxCell id="2DC2WM5DY_a96OD5L-HZ-544" value="12" style="rounded=0;whiteSpace=wrap;html=1;fontSize=32;" vertex="1" parent="2DC2WM5DY_a96OD5L-HZ-660">
          <mxGeometry x="430" y="680" width="120" height="120" as="geometry" />
        </mxCell>
        <mxCell id="2DC2WM5DY_a96OD5L-HZ-545" value="10" style="rounded=0;whiteSpace=wrap;html=1;fontSize=32;" vertex="1" parent="2DC2WM5DY_a96OD5L-HZ-660">
          <mxGeometry x="550" y="700" width="100" height="100" as="geometry" />
        </mxCell>
        <mxCell id="2DC2WM5DY_a96OD5L-HZ-546" value="50" style="rounded=0;whiteSpace=wrap;html=1;fontSize=32;" vertex="1" parent="2DC2WM5DY_a96OD5L-HZ-660">
          <mxGeometry x="970" y="520" width="500" height="500" as="geometry" />
        </mxCell>
        <mxCell id="2DC2WM5DY_a96OD5L-HZ-547" value="2" style="rounded=0;whiteSpace=wrap;html=1;fontSize=32;" vertex="1" parent="2DC2WM5DY_a96OD5L-HZ-660">
          <mxGeometry x="550" y="680" width="20" height="20" as="geometry" />
        </mxCell>
        <mxCell id="2DC2WM5DY_a96OD5L-HZ-548" value="8" style="rounded=0;whiteSpace=wrap;html=1;fontSize=32;" vertex="1" parent="2DC2WM5DY_a96OD5L-HZ-660">
          <mxGeometry x="570" y="620" width="80" height="80" as="geometry" />
        </mxCell>
        <mxCell id="2DC2WM5DY_a96OD5L-HZ-549" value="9" style="rounded=0;whiteSpace=wrap;html=1;fontSize=32;" vertex="1" parent="2DC2WM5DY_a96OD5L-HZ-660">
          <mxGeometry x="430" y="590" width="90" height="90" as="geometry" />
        </mxCell>
        <mxCell id="2DC2WM5DY_a96OD5L-HZ-550" value="5" style="rounded=0;whiteSpace=wrap;html=1;fontSize=32;" vertex="1" parent="2DC2WM5DY_a96OD5L-HZ-660">
          <mxGeometry x="520" y="630" width="50" height="50" as="geometry" />
        </mxCell>
        <mxCell id="2DC2WM5DY_a96OD5L-HZ-551" value="4" style="rounded=0;whiteSpace=wrap;html=1;fontSize=32;" vertex="1" parent="2DC2WM5DY_a96OD5L-HZ-660">
          <mxGeometry x="520" y="590" width="40" height="40" as="geometry" />
        </mxCell>
        <mxCell id="2DC2WM5DY_a96OD5L-HZ-552" value="1" style="rounded=0;whiteSpace=wrap;html=1;fontSize=32;" vertex="1" parent="2DC2WM5DY_a96OD5L-HZ-660">
          <mxGeometry x="560" y="620" width="10" height="10" as="geometry" />
        </mxCell>
        <mxCell id="2DC2WM5DY_a96OD5L-HZ-553" value="14" style="rounded=0;whiteSpace=wrap;html=1;fontSize=32;" vertex="1" parent="2DC2WM5DY_a96OD5L-HZ-660">
          <mxGeometry x="650" y="560" width="140" height="140" as="geometry" />
        </mxCell>
        <mxCell id="2DC2WM5DY_a96OD5L-HZ-554" value="3" style="rounded=0;whiteSpace=wrap;html=1;fontSize=32;" vertex="1" parent="2DC2WM5DY_a96OD5L-HZ-660">
          <mxGeometry x="560" y="590" width="30" height="30" as="geometry" />
        </mxCell>
        <mxCell id="2DC2WM5DY_a96OD5L-HZ-555" value="6" style="rounded=0;whiteSpace=wrap;html=1;fontSize=32;" vertex="1" parent="2DC2WM5DY_a96OD5L-HZ-660">
          <mxGeometry x="590" y="560" width="60" height="60" as="geometry" />
        </mxCell>
        <mxCell id="2DC2WM5DY_a96OD5L-HZ-556" value="18" style="rounded=0;whiteSpace=wrap;html=1;fontSize=32;" vertex="1" parent="2DC2WM5DY_a96OD5L-HZ-660">
          <mxGeometry x="790" y="520" width="180" height="180" as="geometry" />
        </mxCell>
        <mxCell id="2DC2WM5DY_a96OD5L-HZ-557" value="59" style="rounded=0;whiteSpace=wrap;html=1;fontSize=32;" vertex="1" parent="2DC2WM5DY_a96OD5L-HZ-660">
          <mxGeometry width="590" height="590" as="geometry" />
        </mxCell>
        <mxCell id="2DC2WM5DY_a96OD5L-HZ-558" value="20" style="rounded=0;whiteSpace=wrap;html=1;fontSize=32;" vertex="1" parent="2DC2WM5DY_a96OD5L-HZ-660">
          <mxGeometry x="590" y="360" width="200" height="200" as="geometry" />
        </mxCell>
        <mxCell id="2DC2WM5DY_a96OD5L-HZ-559" value="16" style="rounded=0;whiteSpace=wrap;html=1;fontSize=32;" vertex="1" parent="2DC2WM5DY_a96OD5L-HZ-660">
          <mxGeometry x="790" y="360" width="160" height="160" as="geometry" />
        </mxCell>
        <mxCell id="2DC2WM5DY_a96OD5L-HZ-560" value="52" style="rounded=0;whiteSpace=wrap;html=1;fontSize=32;" vertex="1" parent="2DC2WM5DY_a96OD5L-HZ-660">
          <mxGeometry x="950" width="520" height="520" as="geometry" />
        </mxCell>
        <mxCell id="2DC2WM5DY_a96OD5L-HZ-561" value="36" style="rounded=0;whiteSpace=wrap;html=1;fontSize=32;" vertex="1" parent="2DC2WM5DY_a96OD5L-HZ-660">
          <mxGeometry x="590" width="360" height="360" as="geometry" />
        </mxCell>
        <mxCell id="2DC2WM5DY_a96OD5L-HZ-661" value="" style="group;flipV=1;" vertex="1" connectable="0" parent="1">
          <mxGeometry x="1610" y="7570" width="1470" height="1360" as="geometry" />
        </mxCell>
        <mxCell id="2DC2WM5DY_a96OD5L-HZ-563" value="57" style="rounded=0;whiteSpace=wrap;html=1;fontSize=32;" vertex="1" parent="2DC2WM5DY_a96OD5L-HZ-661">
          <mxGeometry y="790" width="570" height="570" as="geometry" />
        </mxCell>
        <mxCell id="2DC2WM5DY_a96OD5L-HZ-564" value="35" style="rounded=0;whiteSpace=wrap;html=1;fontSize=32;" vertex="1" parent="2DC2WM5DY_a96OD5L-HZ-661">
          <mxGeometry x="570" y="1010" width="350" height="350" as="geometry" />
        </mxCell>
        <mxCell id="2DC2WM5DY_a96OD5L-HZ-565" value="31" style="rounded=0;whiteSpace=wrap;html=1;fontSize=32;" vertex="1" parent="2DC2WM5DY_a96OD5L-HZ-661">
          <mxGeometry x="920" y="1050" width="310" height="310" as="geometry" />
        </mxCell>
        <mxCell id="2DC2WM5DY_a96OD5L-HZ-566" value="24" style="rounded=0;whiteSpace=wrap;html=1;fontSize=32;" vertex="1" parent="2DC2WM5DY_a96OD5L-HZ-661">
          <mxGeometry x="1230" y="1120" width="240" height="240" as="geometry" />
        </mxCell>
        <mxCell id="2DC2WM5DY_a96OD5L-HZ-567" value="7" style="rounded=0;whiteSpace=wrap;html=1;fontSize=32;" vertex="1" parent="2DC2WM5DY_a96OD5L-HZ-661">
          <mxGeometry x="1230" y="1050" width="70" height="70" as="geometry" />
        </mxCell>
        <mxCell id="2DC2WM5DY_a96OD5L-HZ-568" value="17" style="rounded=0;whiteSpace=wrap;html=1;fontSize=32;" vertex="1" parent="2DC2WM5DY_a96OD5L-HZ-661">
          <mxGeometry x="1300" y="950" width="170" height="170" as="geometry" />
        </mxCell>
        <mxCell id="2DC2WM5DY_a96OD5L-HZ-569" value="12" style="rounded=0;whiteSpace=wrap;html=1;fontSize=32;" vertex="1" parent="2DC2WM5DY_a96OD5L-HZ-661">
          <mxGeometry x="920" y="930" width="120" height="120" as="geometry" />
        </mxCell>
        <mxCell id="2DC2WM5DY_a96OD5L-HZ-570" value="16" style="rounded=0;whiteSpace=wrap;html=1;fontSize=32;" vertex="1" parent="2DC2WM5DY_a96OD5L-HZ-661">
          <mxGeometry x="1040" y="890" width="160" height="160" as="geometry" />
        </mxCell>
        <mxCell id="2DC2WM5DY_a96OD5L-HZ-571" value="10" style="rounded=0;whiteSpace=wrap;html=1;fontSize=32;" vertex="1" parent="2DC2WM5DY_a96OD5L-HZ-661">
          <mxGeometry x="1200" y="950" width="100" height="100" as="geometry" />
        </mxCell>
        <mxCell id="2DC2WM5DY_a96OD5L-HZ-572" value="27" style="rounded=0;whiteSpace=wrap;html=1;fontSize=32;" vertex="1" parent="2DC2WM5DY_a96OD5L-HZ-661">
          <mxGeometry x="1200" y="680" width="270" height="270" as="geometry" />
        </mxCell>
        <mxCell id="2DC2WM5DY_a96OD5L-HZ-573" value="22" style="rounded=0;whiteSpace=wrap;html=1;fontSize=32;" vertex="1" parent="2DC2WM5DY_a96OD5L-HZ-661">
          <mxGeometry x="570" y="790" width="220" height="220" as="geometry" />
        </mxCell>
        <mxCell id="2DC2WM5DY_a96OD5L-HZ-574" value="13" style="rounded=0;whiteSpace=wrap;html=1;fontSize=32;" vertex="1" parent="2DC2WM5DY_a96OD5L-HZ-661">
          <mxGeometry x="790" y="880" width="130" height="130" as="geometry" />
        </mxCell>
        <mxCell id="2DC2WM5DY_a96OD5L-HZ-575" value="5" style="rounded=0;whiteSpace=wrap;html=1;fontSize=32;" vertex="1" parent="2DC2WM5DY_a96OD5L-HZ-661">
          <mxGeometry x="920" y="880" width="50" height="50" as="geometry" />
        </mxCell>
        <mxCell id="2DC2WM5DY_a96OD5L-HZ-576" value="3" style="rounded=0;whiteSpace=wrap;html=1;fontSize=32;" vertex="1" parent="2DC2WM5DY_a96OD5L-HZ-661">
          <mxGeometry x="970" y="900" width="30" height="30" as="geometry" />
        </mxCell>
        <mxCell id="2DC2WM5DY_a96OD5L-HZ-577" value="4" style="rounded=0;whiteSpace=wrap;html=1;fontSize=32;" vertex="1" parent="2DC2WM5DY_a96OD5L-HZ-661">
          <mxGeometry x="1000" y="890" width="40" height="40" as="geometry" />
        </mxCell>
        <mxCell id="2DC2WM5DY_a96OD5L-HZ-578" value="2" style="rounded=0;whiteSpace=wrap;html=1;fontSize=32;" vertex="1" parent="2DC2WM5DY_a96OD5L-HZ-661">
          <mxGeometry x="970" y="880" width="20" height="20" as="geometry" />
        </mxCell>
        <mxCell id="2DC2WM5DY_a96OD5L-HZ-579" value="1" style="rounded=0;whiteSpace=wrap;html=1;fontSize=32;" vertex="1" parent="2DC2WM5DY_a96OD5L-HZ-661">
          <mxGeometry x="990" y="890" width="10" height="10" as="geometry" />
        </mxCell>
        <mxCell id="2DC2WM5DY_a96OD5L-HZ-580" value="21" style="rounded=0;whiteSpace=wrap;html=1;fontSize=32;" vertex="1" parent="2DC2WM5DY_a96OD5L-HZ-661">
          <mxGeometry x="990" y="680" width="210" height="210" as="geometry" />
        </mxCell>
        <mxCell id="2DC2WM5DY_a96OD5L-HZ-581" value="20" style="rounded=0;whiteSpace=wrap;html=1;fontSize=32;" vertex="1" parent="2DC2WM5DY_a96OD5L-HZ-661">
          <mxGeometry x="790" y="680" width="200" height="200" as="geometry" />
        </mxCell>
        <mxCell id="2DC2WM5DY_a96OD5L-HZ-582" value="79" style="rounded=0;whiteSpace=wrap;html=1;fontSize=32;" vertex="1" parent="2DC2WM5DY_a96OD5L-HZ-661">
          <mxGeometry width="790" height="790" as="geometry" />
        </mxCell>
        <mxCell id="2DC2WM5DY_a96OD5L-HZ-583" value="68" style="rounded=0;whiteSpace=wrap;html=1;fontSize=32;" vertex="1" parent="2DC2WM5DY_a96OD5L-HZ-661">
          <mxGeometry x="790" width="680" height="680" as="geometry" />
        </mxCell>
        <mxCell id="2DC2WM5DY_a96OD5L-HZ-662" value="" style="group;flipV=1;" vertex="1" connectable="0" parent="1">
          <mxGeometry x="1630" y="9170" width="1470" height="1470" as="geometry" />
        </mxCell>
        <mxCell id="2DC2WM5DY_a96OD5L-HZ-585" value="32" style="rounded=0;whiteSpace=wrap;html=1;fontSize=32;" vertex="1" parent="2DC2WM5DY_a96OD5L-HZ-662">
          <mxGeometry y="1150" width="320" height="320" as="geometry" />
        </mxCell>
        <mxCell id="2DC2WM5DY_a96OD5L-HZ-586" value="19" style="rounded=0;whiteSpace=wrap;html=1;fontSize=32;" vertex="1" parent="2DC2WM5DY_a96OD5L-HZ-662">
          <mxGeometry x="320" y="1280" width="190" height="190" as="geometry" />
        </mxCell>
        <mxCell id="2DC2WM5DY_a96OD5L-HZ-587" value="15" style="rounded=0;whiteSpace=wrap;html=1;fontSize=32;" vertex="1" parent="2DC2WM5DY_a96OD5L-HZ-662">
          <mxGeometry x="510" y="1320" width="150" height="150" as="geometry" />
        </mxCell>
        <mxCell id="2DC2WM5DY_a96OD5L-HZ-588" value="26" style="rounded=0;whiteSpace=wrap;html=1;fontSize=32;" vertex="1" parent="2DC2WM5DY_a96OD5L-HZ-662">
          <mxGeometry x="660" y="1210" width="260" height="260" as="geometry" />
        </mxCell>
        <mxCell id="2DC2WM5DY_a96OD5L-HZ-589" value="4" style="rounded=0;whiteSpace=wrap;html=1;fontSize=32;" vertex="1" parent="2DC2WM5DY_a96OD5L-HZ-662">
          <mxGeometry x="510" y="1280" width="40" height="40" as="geometry" />
        </mxCell>
        <mxCell id="2DC2WM5DY_a96OD5L-HZ-590" value="11" style="rounded=0;whiteSpace=wrap;html=1;fontSize=32;" vertex="1" parent="2DC2WM5DY_a96OD5L-HZ-662">
          <mxGeometry x="550" y="1210" width="110" height="110" as="geometry" />
        </mxCell>
        <mxCell id="2DC2WM5DY_a96OD5L-HZ-591" value="23" style="rounded=0;whiteSpace=wrap;html=1;fontSize=32;" vertex="1" parent="2DC2WM5DY_a96OD5L-HZ-662">
          <mxGeometry x="320" y="1050" width="230" height="230" as="geometry" />
        </mxCell>
        <mxCell id="2DC2WM5DY_a96OD5L-HZ-592" value="22" style="rounded=0;whiteSpace=wrap;html=1;fontSize=32;" vertex="1" parent="2DC2WM5DY_a96OD5L-HZ-662">
          <mxGeometry y="930" width="220" height="220" as="geometry" />
        </mxCell>
        <mxCell id="2DC2WM5DY_a96OD5L-HZ-593" value="10" style="rounded=0;whiteSpace=wrap;html=1;fontSize=32;" vertex="1" parent="2DC2WM5DY_a96OD5L-HZ-662">
          <mxGeometry x="220" y="1050" width="100" height="100" as="geometry" />
        </mxCell>
        <mxCell id="2DC2WM5DY_a96OD5L-HZ-594" value="55" style="rounded=0;whiteSpace=wrap;html=1;fontSize=32;" vertex="1" parent="2DC2WM5DY_a96OD5L-HZ-662">
          <mxGeometry x="920" y="920" width="550" height="550" as="geometry" />
        </mxCell>
        <mxCell id="2DC2WM5DY_a96OD5L-HZ-595" value="37" style="rounded=0;whiteSpace=wrap;html=1;fontSize=32;" vertex="1" parent="2DC2WM5DY_a96OD5L-HZ-662">
          <mxGeometry x="550" y="840" width="370" height="370" as="geometry" />
        </mxCell>
        <mxCell id="2DC2WM5DY_a96OD5L-HZ-596" value="12" style="rounded=0;whiteSpace=wrap;html=1;fontSize=32;" vertex="1" parent="2DC2WM5DY_a96OD5L-HZ-662">
          <mxGeometry x="220" y="930" width="120" height="120" as="geometry" />
        </mxCell>
        <mxCell id="2DC2WM5DY_a96OD5L-HZ-597" value="21" style="rounded=0;whiteSpace=wrap;html=1;fontSize=32;" vertex="1" parent="2DC2WM5DY_a96OD5L-HZ-662">
          <mxGeometry x="340" y="840" width="210" height="210" as="geometry" />
        </mxCell>
        <mxCell id="2DC2WM5DY_a96OD5L-HZ-598" value="34" style="rounded=0;whiteSpace=wrap;html=1;fontSize=32;" vertex="1" parent="2DC2WM5DY_a96OD5L-HZ-662">
          <mxGeometry y="590" width="340" height="340" as="geometry" />
        </mxCell>
        <mxCell id="2DC2WM5DY_a96OD5L-HZ-599" value="8" style="rounded=0;whiteSpace=wrap;html=1;fontSize=32;" vertex="1" parent="2DC2WM5DY_a96OD5L-HZ-662">
          <mxGeometry x="920" y="840" width="80" height="80" as="geometry" />
        </mxCell>
        <mxCell id="2DC2WM5DY_a96OD5L-HZ-600" value="47" style="rounded=0;whiteSpace=wrap;html=1;fontSize=32;" vertex="1" parent="2DC2WM5DY_a96OD5L-HZ-662">
          <mxGeometry x="1000" y="450" width="470" height="470" as="geometry" />
        </mxCell>
        <mxCell id="2DC2WM5DY_a96OD5L-HZ-601" value="25" style="rounded=0;whiteSpace=wrap;html=1;fontSize=32;" vertex="1" parent="2DC2WM5DY_a96OD5L-HZ-662">
          <mxGeometry x="340" y="590" width="250" height="250" as="geometry" />
        </mxCell>
        <mxCell id="2DC2WM5DY_a96OD5L-HZ-602" value="41" style="rounded=0;whiteSpace=wrap;html=1;fontSize=32;" vertex="1" parent="2DC2WM5DY_a96OD5L-HZ-662">
          <mxGeometry x="590" y="430" width="410" height="410" as="geometry" />
        </mxCell>
        <mxCell id="2DC2WM5DY_a96OD5L-HZ-603" value="2" style="rounded=0;whiteSpace=wrap;html=1;fontSize=32;" vertex="1" parent="2DC2WM5DY_a96OD5L-HZ-662">
          <mxGeometry x="1000" y="430" width="20" height="20" as="geometry" />
        </mxCell>
        <mxCell id="2DC2WM5DY_a96OD5L-HZ-604" value="45" style="rounded=0;whiteSpace=wrap;html=1;fontSize=32;" vertex="1" parent="2DC2WM5DY_a96OD5L-HZ-662">
          <mxGeometry x="1020" width="450" height="450" as="geometry" />
        </mxCell>
        <mxCell id="2DC2WM5DY_a96OD5L-HZ-605" value="59" style="rounded=0;whiteSpace=wrap;html=1;fontSize=32;" vertex="1" parent="2DC2WM5DY_a96OD5L-HZ-662">
          <mxGeometry width="590" height="590" as="geometry" />
        </mxCell>
        <mxCell id="2DC2WM5DY_a96OD5L-HZ-606" value="43" style="rounded=0;whiteSpace=wrap;html=1;fontSize=32;" vertex="1" parent="2DC2WM5DY_a96OD5L-HZ-662">
          <mxGeometry x="590" width="430" height="430" as="geometry" />
        </mxCell>
        <mxCell id="2DC2WM5DY_a96OD5L-HZ-663" value="" style="group;flipV=1;" vertex="1" connectable="0" parent="1">
          <mxGeometry x="1640" y="10780" width="1470" height="1470" as="geometry" />
        </mxCell>
        <mxCell id="2DC2WM5DY_a96OD5L-HZ-608" value="43" style="rounded=0;whiteSpace=wrap;html=1;fontSize=32;" vertex="1" parent="2DC2WM5DY_a96OD5L-HZ-663">
          <mxGeometry y="1040" width="430" height="430" as="geometry" />
        </mxCell>
        <mxCell id="2DC2WM5DY_a96OD5L-HZ-609" value="32" style="rounded=0;whiteSpace=wrap;html=1;fontSize=32;" vertex="1" parent="2DC2WM5DY_a96OD5L-HZ-663">
          <mxGeometry x="430" y="1150" width="320" height="320" as="geometry" />
        </mxCell>
        <mxCell id="2DC2WM5DY_a96OD5L-HZ-610" value="25" style="rounded=0;whiteSpace=wrap;html=1;fontSize=32;" vertex="1" parent="2DC2WM5DY_a96OD5L-HZ-663">
          <mxGeometry x="750" y="1220" width="250" height="250" as="geometry" />
        </mxCell>
        <mxCell id="2DC2WM5DY_a96OD5L-HZ-611" value="47" style="rounded=0;whiteSpace=wrap;html=1;fontSize=32;" vertex="1" parent="2DC2WM5DY_a96OD5L-HZ-663">
          <mxGeometry x="1000" y="1000" width="470" height="470" as="geometry" />
        </mxCell>
        <mxCell id="2DC2WM5DY_a96OD5L-HZ-612" value="8" style="rounded=0;whiteSpace=wrap;html=1;fontSize=32;" vertex="1" parent="2DC2WM5DY_a96OD5L-HZ-663">
          <mxGeometry x="750" y="1140" width="80" height="80" as="geometry" />
        </mxCell>
        <mxCell id="2DC2WM5DY_a96OD5L-HZ-613" value="17" style="rounded=0;whiteSpace=wrap;html=1;fontSize=32;" vertex="1" parent="2DC2WM5DY_a96OD5L-HZ-663">
          <mxGeometry x="830" y="1050" width="170" height="170" as="geometry" />
        </mxCell>
        <mxCell id="2DC2WM5DY_a96OD5L-HZ-614" value="31" style="rounded=0;whiteSpace=wrap;html=1;fontSize=32;" vertex="1" parent="2DC2WM5DY_a96OD5L-HZ-663">
          <mxGeometry x="430" y="840" width="310" height="310" as="geometry" />
        </mxCell>
        <mxCell id="2DC2WM5DY_a96OD5L-HZ-615" value="1" style="rounded=0;whiteSpace=wrap;html=1;fontSize=32;" vertex="1" parent="2DC2WM5DY_a96OD5L-HZ-663">
          <mxGeometry x="740" y="1140" width="10" height="10" as="geometry" />
        </mxCell>
        <mxCell id="2DC2WM5DY_a96OD5L-HZ-616" value="9" style="rounded=0;whiteSpace=wrap;html=1;fontSize=32;" vertex="1" parent="2DC2WM5DY_a96OD5L-HZ-663">
          <mxGeometry x="740" y="1050" width="90" height="90" as="geometry" />
        </mxCell>
        <mxCell id="2DC2WM5DY_a96OD5L-HZ-617" value="21" style="rounded=0;whiteSpace=wrap;html=1;fontSize=32;" vertex="1" parent="2DC2WM5DY_a96OD5L-HZ-663">
          <mxGeometry x="740" y="840" width="210" height="210" as="geometry" />
        </mxCell>
        <mxCell id="2DC2WM5DY_a96OD5L-HZ-618" value="5" style="rounded=0;whiteSpace=wrap;html=1;fontSize=32;" vertex="1" parent="2DC2WM5DY_a96OD5L-HZ-663">
          <mxGeometry x="950" y="1000" width="50" height="50" as="geometry" />
        </mxCell>
        <mxCell id="2DC2WM5DY_a96OD5L-HZ-619" value="23" style="rounded=0;whiteSpace=wrap;html=1;fontSize=32;" vertex="1" parent="2DC2WM5DY_a96OD5L-HZ-663">
          <mxGeometry y="810" width="230" height="230" as="geometry" />
        </mxCell>
        <mxCell id="2DC2WM5DY_a96OD5L-HZ-620" value="20" style="rounded=0;whiteSpace=wrap;html=1;fontSize=32;" vertex="1" parent="2DC2WM5DY_a96OD5L-HZ-663">
          <mxGeometry x="230" y="840" width="200" height="200" as="geometry" />
        </mxCell>
        <mxCell id="2DC2WM5DY_a96OD5L-HZ-621" value="52" style="rounded=0;whiteSpace=wrap;html=1;fontSize=32;" vertex="1" parent="2DC2WM5DY_a96OD5L-HZ-663">
          <mxGeometry x="950" y="480" width="520" height="520" as="geometry" />
        </mxCell>
        <mxCell id="2DC2WM5DY_a96OD5L-HZ-622" value="3" style="rounded=0;whiteSpace=wrap;html=1;fontSize=32;" vertex="1" parent="2DC2WM5DY_a96OD5L-HZ-663">
          <mxGeometry x="230" y="810" width="30" height="30" as="geometry" />
        </mxCell>
        <mxCell id="2DC2WM5DY_a96OD5L-HZ-623" value="29" style="rounded=0;whiteSpace=wrap;html=1;fontSize=32;" vertex="1" parent="2DC2WM5DY_a96OD5L-HZ-663">
          <mxGeometry x="260" y="550" width="290" height="290" as="geometry" />
        </mxCell>
        <mxCell id="2DC2WM5DY_a96OD5L-HZ-624" value="26" style="rounded=0;whiteSpace=wrap;html=1;fontSize=32;" vertex="1" parent="2DC2WM5DY_a96OD5L-HZ-663">
          <mxGeometry y="550" width="260" height="260" as="geometry" />
        </mxCell>
        <mxCell id="2DC2WM5DY_a96OD5L-HZ-625" value="40" style="rounded=0;whiteSpace=wrap;html=1;fontSize=32;" vertex="1" parent="2DC2WM5DY_a96OD5L-HZ-663">
          <mxGeometry x="550" y="440" width="400" height="400" as="geometry" />
        </mxCell>
        <mxCell id="2DC2WM5DY_a96OD5L-HZ-626" value="4" style="rounded=0;whiteSpace=wrap;html=1;fontSize=32;" vertex="1" parent="2DC2WM5DY_a96OD5L-HZ-663">
          <mxGeometry x="950" y="440" width="40" height="40" as="geometry" />
        </mxCell>
        <mxCell id="2DC2WM5DY_a96OD5L-HZ-627" value="48" style="rounded=0;whiteSpace=wrap;html=1;fontSize=32;" vertex="1" parent="2DC2WM5DY_a96OD5L-HZ-663">
          <mxGeometry x="990" width="480" height="480" as="geometry" />
        </mxCell>
        <mxCell id="2DC2WM5DY_a96OD5L-HZ-628" value="55" style="rounded=0;whiteSpace=wrap;html=1;fontSize=32;" vertex="1" parent="2DC2WM5DY_a96OD5L-HZ-663">
          <mxGeometry width="550" height="550" as="geometry" />
        </mxCell>
        <mxCell id="2DC2WM5DY_a96OD5L-HZ-629" value="44" style="rounded=0;whiteSpace=wrap;html=1;fontSize=32;" vertex="1" parent="2DC2WM5DY_a96OD5L-HZ-663">
          <mxGeometry x="550" width="440" height="440" as="geometry" />
        </mxCell>
        <mxCell id="2DC2WM5DY_a96OD5L-HZ-664" value="" style="group;flipV=1;" vertex="1" connectable="0" parent="1">
          <mxGeometry x="1640" y="12380" width="1470" height="1470" as="geometry" />
        </mxCell>
        <mxCell id="2DC2WM5DY_a96OD5L-HZ-631" value="19" style="rounded=0;whiteSpace=wrap;html=1;fontSize=32;" vertex="1" parent="2DC2WM5DY_a96OD5L-HZ-664">
          <mxGeometry y="1280" width="190" height="190" as="geometry" />
        </mxCell>
        <mxCell id="2DC2WM5DY_a96OD5L-HZ-632" value="20" style="rounded=0;whiteSpace=wrap;html=1;fontSize=32;" vertex="1" parent="2DC2WM5DY_a96OD5L-HZ-664">
          <mxGeometry x="190" y="1270" width="200" height="200" as="geometry" />
        </mxCell>
        <mxCell id="2DC2WM5DY_a96OD5L-HZ-633" value="14" style="rounded=0;whiteSpace=wrap;html=1;fontSize=32;" vertex="1" parent="2DC2WM5DY_a96OD5L-HZ-664">
          <mxGeometry y="1140" width="140" height="140" as="geometry" />
        </mxCell>
        <mxCell id="2DC2WM5DY_a96OD5L-HZ-634" value="5" style="rounded=0;whiteSpace=wrap;html=1;fontSize=32;" vertex="1" parent="2DC2WM5DY_a96OD5L-HZ-664">
          <mxGeometry x="140" y="1230" width="50" height="50" as="geometry" />
        </mxCell>
        <mxCell id="2DC2WM5DY_a96OD5L-HZ-635" value="23" style="rounded=0;whiteSpace=wrap;html=1;fontSize=32;" vertex="1" parent="2DC2WM5DY_a96OD5L-HZ-664">
          <mxGeometry x="390" y="1240" width="230" height="230" as="geometry" />
        </mxCell>
        <mxCell id="2DC2WM5DY_a96OD5L-HZ-636" value="4" style="rounded=0;whiteSpace=wrap;html=1;fontSize=32;" vertex="1" parent="2DC2WM5DY_a96OD5L-HZ-664">
          <mxGeometry x="190" y="1230" width="40" height="40" as="geometry" />
        </mxCell>
        <mxCell id="2DC2WM5DY_a96OD5L-HZ-637" value="13" style="rounded=0;whiteSpace=wrap;html=1;fontSize=32;" vertex="1" parent="2DC2WM5DY_a96OD5L-HZ-664">
          <mxGeometry x="230" y="1140" width="130" height="130" as="geometry" />
        </mxCell>
        <mxCell id="2DC2WM5DY_a96OD5L-HZ-638" value="3" style="rounded=0;whiteSpace=wrap;html=1;fontSize=32;" vertex="1" parent="2DC2WM5DY_a96OD5L-HZ-664">
          <mxGeometry x="360" y="1240" width="30" height="30" as="geometry" />
        </mxCell>
        <mxCell id="2DC2WM5DY_a96OD5L-HZ-639" value="9" style="rounded=0;whiteSpace=wrap;html=1;fontSize=32;" vertex="1" parent="2DC2WM5DY_a96OD5L-HZ-664">
          <mxGeometry x="140" y="1140" width="90" height="90" as="geometry" />
        </mxCell>
        <mxCell id="2DC2WM5DY_a96OD5L-HZ-640" value="27" style="rounded=0;whiteSpace=wrap;html=1;fontSize=32;" vertex="1" parent="2DC2WM5DY_a96OD5L-HZ-664">
          <mxGeometry x="620" y="1200" width="270" height="270" as="geometry" />
        </mxCell>
        <mxCell id="2DC2WM5DY_a96OD5L-HZ-641" value="10" style="rounded=0;whiteSpace=wrap;html=1;fontSize=32;" vertex="1" parent="2DC2WM5DY_a96OD5L-HZ-664">
          <mxGeometry x="360" y="1140" width="100" height="100" as="geometry" />
        </mxCell>
        <mxCell id="2DC2WM5DY_a96OD5L-HZ-642" value="16" style="rounded=0;whiteSpace=wrap;html=1;fontSize=32;" vertex="1" parent="2DC2WM5DY_a96OD5L-HZ-664">
          <mxGeometry x="460" y="1080" width="160" height="160" as="geometry" />
        </mxCell>
        <mxCell id="2DC2WM5DY_a96OD5L-HZ-643" value="40" style="rounded=0;whiteSpace=wrap;html=1;fontSize=32;" vertex="1" parent="2DC2WM5DY_a96OD5L-HZ-664">
          <mxGeometry y="740" width="400" height="400" as="geometry" />
        </mxCell>
        <mxCell id="2DC2WM5DY_a96OD5L-HZ-644" value="6" style="rounded=0;whiteSpace=wrap;html=1;fontSize=32;" vertex="1" parent="2DC2WM5DY_a96OD5L-HZ-664">
          <mxGeometry x="400" y="1080" width="60" height="60" as="geometry" />
        </mxCell>
        <mxCell id="2DC2WM5DY_a96OD5L-HZ-645" value="25" style="rounded=0;whiteSpace=wrap;html=1;fontSize=32;" vertex="1" parent="2DC2WM5DY_a96OD5L-HZ-664">
          <mxGeometry x="890" y="1220" width="250" height="250" as="geometry" />
        </mxCell>
        <mxCell id="2DC2WM5DY_a96OD5L-HZ-646" value="33" style="rounded=0;whiteSpace=wrap;html=1;fontSize=32;" vertex="1" parent="2DC2WM5DY_a96OD5L-HZ-664">
          <mxGeometry x="1140" y="1140" width="330" height="330" as="geometry" />
        </mxCell>
        <mxCell id="2DC2WM5DY_a96OD5L-HZ-647" value="17" style="rounded=0;whiteSpace=wrap;html=1;fontSize=32;" vertex="1" parent="2DC2WM5DY_a96OD5L-HZ-664">
          <mxGeometry x="890" y="1050" width="170" height="170" as="geometry" />
        </mxCell>
        <mxCell id="2DC2WM5DY_a96OD5L-HZ-648" value="8" style="rounded=0;whiteSpace=wrap;html=1;fontSize=32;" vertex="1" parent="2DC2WM5DY_a96OD5L-HZ-664">
          <mxGeometry x="1060" y="1140" width="80" height="80" as="geometry" />
        </mxCell>
        <mxCell id="2DC2WM5DY_a96OD5L-HZ-649" value="12" style="rounded=0;whiteSpace=wrap;html=1;fontSize=32;" vertex="1" parent="2DC2WM5DY_a96OD5L-HZ-664">
          <mxGeometry x="620" y="1080" width="120" height="120" as="geometry" />
        </mxCell>
        <mxCell id="2DC2WM5DY_a96OD5L-HZ-650" value="15" style="rounded=0;whiteSpace=wrap;html=1;fontSize=32;" vertex="1" parent="2DC2WM5DY_a96OD5L-HZ-664">
          <mxGeometry x="740" y="1050" width="150" height="150" as="geometry" />
        </mxCell>
        <mxCell id="2DC2WM5DY_a96OD5L-HZ-651" value="34" style="rounded=0;whiteSpace=wrap;html=1;fontSize=32;" vertex="1" parent="2DC2WM5DY_a96OD5L-HZ-664">
          <mxGeometry x="400" y="740" width="340" height="340" as="geometry" />
        </mxCell>
        <mxCell id="2DC2WM5DY_a96OD5L-HZ-652" value="41" style="rounded=0;whiteSpace=wrap;html=1;fontSize=32;" vertex="1" parent="2DC2WM5DY_a96OD5L-HZ-664">
          <mxGeometry x="1060" y="730" width="410" height="410" as="geometry" />
        </mxCell>
        <mxCell id="2DC2WM5DY_a96OD5L-HZ-653" value="32" style="rounded=0;whiteSpace=wrap;html=1;fontSize=32;" vertex="1" parent="2DC2WM5DY_a96OD5L-HZ-664">
          <mxGeometry x="740" y="730" width="320" height="320" as="geometry" />
        </mxCell>
        <mxCell id="2DC2WM5DY_a96OD5L-HZ-654" value="74" style="rounded=0;whiteSpace=wrap;html=1;fontSize=32;" vertex="1" parent="2DC2WM5DY_a96OD5L-HZ-664">
          <mxGeometry width="740" height="740" as="geometry" />
        </mxCell>
        <mxCell id="2DC2WM5DY_a96OD5L-HZ-655" value="73" style="rounded=0;whiteSpace=wrap;html=1;fontSize=32;" vertex="1" parent="2DC2WM5DY_a96OD5L-HZ-664">
          <mxGeometry x="740" width="730" height="730" as="geometry" />
        </mxCell>
      </root>
    </mxGraphModel>
  </diagram>
</mxfile>
